<?xml version="1.0" standalone="no"?>
<!DOCTYPE svg PUBLIC "-//W3C//DTD SVG 20010904//EN"
 "http://www.w3.org/TR/2001/REC-SVG-20010904/DTD/svg10.dtd">
<svg version="1.0" xmlns="http://www.w3.org/2000/svg"
 width="512.000000pt" height="512.000000pt" viewBox="0 0 512.000000 512.000000"
 preserveAspectRatio="xMidYMid meet">

<g transform="translate(0.000000,512.000000) scale(0.100000,-0.100000)"
fill="#000000" stroke="none">
<path d="M2335 5104 c-173 -26 -396 -112 -525 -201 l-55 -38 -336 -5 -335 -5
-76 -38 c-91 -45 -157 -112 -202 -207 l-31 -65 -3 -895 c-2 -869 -2 -897 17
-960 37 -121 134 -226 254 -273 39 -15 83 -21 174 -25 l123 -4 -58 -35 c-144
-87 -242 -186 -299 -301 -31 -62 -37 -86 -41 -156 -12 -231 74 -502 227 -716
107 -150 272 -301 442 -406 l61 -38 -6 -55 c-3 -31 -11 -126 -17 -212 -11
-150 -11 -160 10 -227 27 -88 95 -168 179 -209 l57 -28 665 0 665 0 57 28 c84
41 152 121 179 209 21 67 21 77 10 227 -6 86 -14 181 -17 212 l-6 56 53 31
c87 50 198 136 287 224 261 256 406 594 390 904 -4 70 -10 94 -41 156 -57 115
-155 214 -299 301 l-58 35 123 4 c91 4 135 10 174 25 120 47 217 152 254 273
19 63 19 91 17 960 l-3 895 -31 65 c-45 95 -111 162 -202 207 l-76 38 -335 5
-336 5 -45 32 c-138 96 -358 180 -541 207 -128 19 -321 19 -444 0z m460 -180
c57 -9 106 -24 135 -41 286 -165 490 -459 583 -843 51 -210 62 -313 62 -610
-1 -261 -2 -281 -28 -403 -33 -154 -77 -295 -125 -400 -33 -72 -38 -78 -61
-74 -14 2 -93 18 -176 35 -230 46 -344 57 -625 57 -150 0 -300 -6 -365 -14
-148 -17 -378 -63 -497 -99 l-98 -29 -50 101 c-109 222 -168 464 -177 736 -16
485 91 915 296 1187 250 332 653 474 1126 397z m135 -2819 c159 -24 204 -39
254 -88 66 -63 72 -114 21 -176 -42 -49 -88 -71 -194 -91 -395 -77 -943 -35
-1198 90 -115 57 -126 85 -55 133 107 70 358 133 602 151 111 8 468 -4 570
-19z m-985 -1492 c336 -117 724 -134 1069 -47 54 13 100 23 102 21 8 -7 23
-260 17 -289 -7 -40 -36 -100 -56 -117 -12 -9 -146 -11 -579 -9 l-563 3 -37
23 c-20 13 -47 39 -59 59 -21 34 -22 42 -15 192 8 183 12 205 35 196 9 -4 48
-18 86 -32z"/>
</g>
</svg>
